<?xml version="1.0" encoding="utf-8"?>
<!-- Generator: Adobe Illustrator 22.0.0, SVG Export Plug-In . SVG Version: 6.00 Build 0)  -->
<svg version="1.1" id="Layer_1" xmlns="http://www.w3.org/2000/svg" xmlns:xlink="http://www.w3.org/1999/xlink" x="0px" y="0px"
	 viewBox="0 0 192.6 115.6" style="enable-background:new 0 0 192.6 115.6;" xml:space="preserve">
<style type="text/css">
	.st0{fill:#FFFFFF;}
	.st1{fill:#234090;}
	.st2{fill:#333366;}
	.st3{fill:#002E6D;}
</style>
<polygon class="st0" points="156.1,112.6 179.2,4 28.1,4 5,112.6 "/>
<path class="st1" d="M31.2,8.5c0,0,84,17.3,85.7,17.5c19.3,3.4,18.7,7.1,18.7,7.1c13.5-0.1,15.2,0.5,17.6,2.5
	c7.1,5.9-4.4,23.4-4.4,23.4c-1.7,1.2-126.6,49.5-126.6,49.5h130.7L174.2,8H31.3L31.2,8.5z"/>
<path class="st2" d="M31.2,8.5c0,0,84,17.3,85.7,17.5c19.3,3.4,18.7,7.1,18.7,7.1c13.5-0.1,15.2,0.5,17.6,2.5
	c7.1,5.9-4.4,23.4-4.4,23.4c-1.7,1.2-126.6,49.5-126.6,49.5h130.7L174.2,8H31.3L31.2,8.5z"/>
<path class="st3" d="M129,41c-1.9,0.9-6.8,1.4-9.2,1.6c-2.2,0.2-2.8,0.4-2.9,1.3c0,0.8,0.3,1.2,3.5,1.2c7.3,0,20.6-2.8,24.5-1.5
	c2.1,0.7,0.4,4.4-1.3,9.4c-0.7,1.9,0.6,1.8,1.4,0.9c0.8-0.8,4.2-7.1,4.6-10.3c0.5-4.5-3.4-5.2-8.7-5.2h-8.5c-0.4,0-0.8,0.3-1.3,1
	C130.6,40,130.2,40.4,129,41"/>
<path class="st2" d="M26.4,31.3L10,108.6c0,0,50.3-24.7,56.4-27.8c12.6-6.5,30-15,46.1-20.5c3.1-1,16.2-5.1,23.9-6.4
	c3-0.5,4.2-1,4.2-1.6c-0.1-1.6-3.1-1.7-8.1-1.4C117,51.5,87.4,63.2,79,67.7L69.3,38h61.3c2.7-7.7-36.3-6.6-37.5-6.7H26.4L26.4,31.3z
	"/>
<path class="st2" d="M186.6,97.7c0,6.2-4.8,11-11,11c-6.2,0-11-4.8-11-11c0-6.2,4.8-11,11-11C181.8,86.7,186.6,91.5,186.6,97.7
	 M166.3,97.7c0,5.3,4,9.4,9.3,9.4c5.3,0,9.3-4.2,9.3-9.4c0-5.3-4-9.4-9.3-9.4C170.3,88.3,166.3,92.4,166.3,97.7 M173.2,104h-1.6
	V91.3h4.9c2.9,0,4.1,1.2,4.1,3.5c0,2.2-1.5,3.2-3.2,3.5l3.8,5.6h-1.8l-3.6-5.6h-2.6V104z M175.2,97.1c1.9,0,3.8-0.1,3.8-2.2
	c0-1.8-1.5-2.2-3-2.2h-2.9v4.4H175.2z"/>
</svg>
